<svg width="32" height="24" viewBox="0 0 32 24" fill="none" xmlns="http://www.w3.org/2000/svg">
<path d="M29.7661 0.0591768C26.8373 0.225393 21.016 0.830398 17.4223 3.03022C17.1743 3.18201 17.0337 3.45191 17.0337 3.7341V23.1814C17.0337 23.7987 17.7088 24.1888 18.278 23.9024C21.9753 22.0414 27.3226 21.5336 29.9665 21.3947C30.8692 21.3471 31.571 20.6235 31.571 19.756V1.69996C31.5715 0.753436 30.7506 0.00359334 29.7661 0.0591768ZM14.9355 3.03022C11.3423 0.830398 5.52101 0.225927 2.59218 0.0591768C1.60771 0.00359334 0.786789 0.753436 0.786789 1.69996V19.7566C0.786789 20.6245 1.48853 21.3482 2.39123 21.3952C5.03625 21.5342 10.3862 22.0425 14.0835 23.9045C14.6511 24.1904 15.324 23.8008 15.324 23.1851V3.72448C15.324 3.44175 15.184 3.18254 14.9355 3.03022Z" fill="#F4F4F4"/>
</svg>
