<svg width="26" height="34" viewBox="0 0 26 34" fill="none" xmlns="http://www.w3.org/2000/svg">
<path d="M25.0626 8.60873V30.2839C25.0626 32.0135 23.6593 33.4168 21.9297 33.4168H3.13282C1.40324 33.4168 0 32.0135 0 30.2839V3.13282C0 1.40324 1.40324 0 3.13282 0H16.4538C17.2827 0 18.079 0.332862 18.6664 0.920266L24.1423 6.39618C24.7297 6.97705 25.0626 7.77984 25.0626 8.60873ZM16.7084 3.38736V8.35419H21.6752L16.7084 3.38736ZM21.9297 30.2839V11.487H15.142C14.2739 11.487 13.5756 10.7887 13.5756 9.9206V3.13282H3.13282V30.2839H21.9297Z" fill="#FF7138"/>
<path d="M17.9761 19.7294H13.5154V15.2687C13.5154 15.0715 13.437 14.8824 13.2976 14.743C13.1582 14.6036 12.9691 14.5253 12.7719 14.5253C12.5747 14.5253 12.3856 14.6036 12.2462 14.743C12.1068 14.8824 12.0285 15.0715 12.0285 15.2687V19.7294H7.56776C7.37059 19.7294 7.18149 19.8077 7.04206 19.9472C6.90264 20.0866 6.82431 20.2757 6.82431 20.4729C6.82431 20.67 6.90264 20.8591 7.04206 20.9986C7.18149 21.138 7.37059 21.2163 7.56776 21.2163H12.0285V25.677C12.0285 25.8742 12.1068 26.0633 12.2462 26.2027C12.3856 26.3421 12.5747 26.4205 12.7719 26.4205C12.9691 26.4205 13.1582 26.3421 13.2976 26.2027C13.437 26.0633 13.5154 25.8742 13.5154 25.677V21.2163H17.9761C18.1733 21.2163 18.3624 21.138 18.5018 20.9986C18.6412 20.8591 18.7195 20.67 18.7195 20.4729C18.7195 20.2757 18.6412 20.0866 18.5018 19.9472C18.3624 19.8077 18.1733 19.7294 17.9761 19.7294Z" fill="#FF7138"/>
</svg>
