<svg width="31" height="35" viewBox="0 0 31 35" fill="none" xmlns="http://www.w3.org/2000/svg">
<path d="M21.375 31.125V33.3594C21.375 33.9893 20.8643 34.5 20.2344 34.5H1.64062C1.01066 34.5 0.5 33.9893 0.5 33.3594V8.20312C0.5 7.57316 1.01066 7.0625 1.64062 7.0625H6.0625V26.7969C6.0625 29.1839 8.00361 31.125 10.3906 31.125H21.375ZM10.3906 0.5H21.375V7.10938C21.375 8.28786 22.3371 9.25 23.5156 9.25H30.125V26.7969C30.125 27.4268 29.6143 27.9375 28.9844 27.9375H10.3906C9.76066 27.9375 9.25 27.4268 9.25 26.7969V1.64062C9.25 1.01066 9.76066 0.5 10.3906 0.5ZM25.2832 0.834051L29.7909 5.34181C29.9845 5.53538 30.1013 5.79139 30.1218 6.0625H24.5625V0.503231C24.8336 0.523676 25.0896 0.640483 25.2832 0.834051Z" stroke="#FF7138"/>
</svg>
