<svg width="139" height="66" viewBox="0 0 139 66" fill="none" xmlns="http://www.w3.org/2000/svg">
<path d="M91.7024 1.41188C71.2395 5.14365 50.5704 12.4289 32.8082 21.8094C24.5084 26.1926 19.4554 29.7312 12.8258 35.5742C8.10793 39.7323 3.14625 44.71 1.47747 50.5177C-0.389415 57.0148 3.28516 63.2391 11.3283 64.4224C23.8927 66.2708 37.9939 63.3327 50.0061 60.5467C63.0056 57.5317 75.3429 53.0264 87.2333 47.6808C101.548 41.2453 116.248 33.8864 127.362 23.6673C131.316 20.0316 142.755 10.6831 135.809 5.48738C126.603 -1.39812 106.843 1.33824 96.2161 2.69257C83.4705 4.31695 66.519 7.11787 54.2268 10.4251" stroke="#FF7138" stroke-linecap="round"/>
</svg>
