<svg width="45" height="45" viewBox="0 0 45 45" fill="none" xmlns="http://www.w3.org/2000/svg">
<g clip-path="url(#clip0_68_232)">
<path d="M19.8564 39.5839L42.8689 16.7242C42.8689 16.7242 39.7927 11.8463 31.806 13.5506" stroke="#FF7138" stroke-width="1.32447" stroke-miterlimit="10" stroke-linecap="round"/>
<path d="M25.9494 4.38333L0.540955 29.623C0.540955 29.623 6.30893 39.2311 15.0645 44.461L17.5791 41.9631" stroke="#FF7138" stroke-width="1.32447" stroke-miterlimit="10" stroke-linecap="round"/>
<path d="M28.1975 1.73929C28.1975 1.73929 32.8045 5.16238 31.5893 12.5126C30.2881 20.3873 21.2169 30.8864 12.1061 32.9632C8.94911 33.6825 3.42967 33.316 0.540955 29.623" stroke="#FF7138" stroke-width="1.32447" stroke-miterlimit="10" stroke-linecap="round"/>
<path d="M11.8946 33.0085C11.8946 33.0085 9.85899 39.6232 15.0645 44.4609" stroke="#FF7138" stroke-width="1.32447" stroke-miterlimit="10" stroke-linecap="round"/>
<path d="M30.7215 1.03367C30.7215 1.03367 32.6144 1.70001 33.1269 2.13056C33.6395 2.56112 35.2176 0.0153694 36.4405 0.485223C37.6634 0.955076 37.3478 2.7969 38.3729 2.99253C39.398 3.18816 41.2521 2.56197 41.6073 3.34535C41.9625 4.12872 41.3708 6.12688 41.8438 6.4404C42.3168 6.75392 45.1961 7.57659 44.447 8.98701C43.698 10.3974 42.7907 10.6716 43.0667 11.6899C43.3428 12.7082 44.0136 12.5519 43.8949 14.0794" stroke="#FF7138" stroke-width="1.32447" stroke-miterlimit="10" stroke-linecap="round"/>
<path d="M32.9962 4.74298C32.9962 4.74298 40.2795 6.38832 34.0746 10.9066" stroke="#FF7138" stroke-width="1.32447" stroke-miterlimit="10" stroke-linecap="round"/>
<path d="M38.7539 7.1196C38.7539 7.1196 40.0164 7.09312 40.2787 11.9779" stroke="#FF7138" stroke-width="1.32447" stroke-miterlimit="10" stroke-linecap="round"/>
</g>
<defs>
<clipPath id="clip0_68_232">
<rect width="45" height="45" fill="white"/>
</clipPath>
</defs>
</svg>
