<svg width="255" height="238" viewBox="0 0 255 238" fill="none" xmlns="http://www.w3.org/2000/svg">
<path d="M38.2173 62.8061C33.2161 103.539 58.4865 143.266 89.8395 167.326C105.291 179.184 125.165 187.277 144.572 180.85C152.97 178.07 160.646 172.698 164.954 164.823C167.578 160.035 169.293 153.695 165.798 148.89C160.489 141.582 151.985 147.263 151.447 154.76C150.458 168.702 170.826 172.889 181.025 173.594C192.982 174.433 204.853 172.15 216.346 169.051C219.624 168.168 220.504 173.393 217.237 174.26C203.455 177.89 188.96 180.299 174.735 177.987C164.413 176.309 152.21 172.07 147.781 161.643C144.546 154.022 148.062 143.231 156.47 140.673C165.318 137.984 172.576 146.457 172.906 154.687C173.804 177.615 145.451 189.35 126.473 188.131C100.061 186.419 77.5142 165.724 61.932 145.98C43.3352 122.44 31.3655 92.8819 35.8528 62.5667C36.0733 61.0732 38.4036 61.2766 38.2173 62.8061Z" fill="#FF7138"/>
<path d="M195.097 158.24C194.195 163.685 211.631 165.952 214.478 166.557C216.918 167.078 219.824 167.617 220.207 170.672C220.611 173.935 216.494 176.626 214.558 178.483C209.771 183.067 205.096 187.814 200.118 192.178C197.684 194.316 194.815 190.636 196.953 188.408C200.684 184.523 204.711 180.895 208.612 177.19C209.479 176.37 214.504 172.684 214.002 171.384C213.896 171.094 209.451 170.636 209.217 170.578C203.604 169.271 193.586 166.015 191.554 159.868C191.29 159.059 191.391 158.342 192.017 157.745C192.284 157.504 192.535 157.251 192.801 157.009C193.669 156.189 195.31 157.028 195.111 158.238L195.097 158.24Z" fill="#FF7138"/>
<path d="M32.9722 61.5198C32.5496 59.2125 35.3753 57.4835 37.2369 58.9568C37.576 59.2207 37.8501 59.6777 37.7726 60.1249C37.3844 62.1929 36.1281 63.8494 34.0826 64.4932C33.539 64.6701 32.7837 64.6733 32.4094 64.1215C30.1246 60.747 33.5711 57.2462 36.6161 55.8996C38.1397 55.2331 39.9531 54.951 41.3144 56.1179C42.9057 57.4834 42.5792 59.6668 41.5836 61.2927C39.768 64.2627 35.2494 67.387 32.0794 64.4019C29.0027 61.4708 32.2883 56.9477 35.4478 55.8615C38.793 54.7155 42.4705 56.494 42.9306 60.1666C43.3256 63.4583 40.7608 66.7943 37.2322 65.8861C33.4721 64.9335 32.0477 60.1242 35.1375 57.5662C36.4122 56.5084 38.2634 56.0378 39.8534 56.5777C41.741 57.2207 42.8106 59.1373 41.7228 60.961C41.0696 62.0525 40.0144 63.0028 39.1702 63.959C38.441 64.7696 37.671 65.5871 36.5539 65.8482C34.8182 66.257 33.2283 65.2272 32.4981 63.6584C31.7221 61.9855 31.9339 60.0317 33.1505 58.6339C34.7442 56.8216 37.2216 56.4119 39.498 56.2186C40.3664 56.14 41.4323 56.6436 41.5046 57.639C41.7847 61.6503 38.8502 65.5254 34.6684 65.7087C33.7931 65.7465 32.698 65.3179 32.63 64.2657C32.3755 60.4041 36.4564 57.8305 39.8238 59.7601C41.7951 60.8926 39.7387 63.7638 37.7833 62.6425C37.2103 62.3206 36.0655 62.9923 36.1114 63.6703L34.073 62.2273C36.1866 62.1458 38.2165 60.5109 38.0776 58.2251C38.7464 58.6986 39.4153 59.1721 40.0841 59.6456C38.8416 59.7461 35.1925 59.8523 35.5002 61.8153C35.6328 62.5904 35.7389 62.4743 36.1889 62.1594C37.0552 61.5773 37.9524 60.2761 38.6136 59.4772C38.7917 59.2088 38.8192 59.288 38.6986 59.7286C38.5079 59.6772 38.3264 59.6803 38.1543 59.7377C37.7583 59.9594 37.341 59.9748 37.0207 60.3935C36.4613 61.133 36.8258 62.0365 37.5875 62.4801C39.0974 63.3696 39.9042 61.6219 39.6471 60.3642C39.311 58.6441 37.4003 58.4389 36.0332 59.1207C35.2591 59.505 34.4546 60.2025 34.2246 61.0676C33.9188 62.2257 34.8931 62.521 35.8513 62.2311C36.8095 61.9413 37.749 60.9688 38.3651 60.2335C38.8863 59.5985 39.8578 58.1586 38.3603 58.5687C36.9805 58.9306 33.7001 60.9474 34.7438 62.6305C34.2369 62.3672 33.7436 62.1017 33.2367 61.8385C34.374 61.532 35.0053 60.6402 35.2933 59.5411C35.4473 60.0327 35.6037 60.5378 35.7441 61.0317C35.548 60.7853 35.3848 60.8132 35.2274 61.1201C35.3946 62.5892 33.2211 62.9749 32.9563 61.5085L32.9722 61.5198Z" fill="#FF7138"/>
</svg>
