<svg width="50" height="50" viewBox="0 0 50 50" fill="none" xmlns="http://www.w3.org/2000/svg">
<path d="M17.1144 0C17.1144 13.1389 10.0139 24.8937 0 24.8937C10.0139 24.8937 17.1144 36.6493 17.1144 49.7873C17.1144 36.6493 24.2149 24.8937 34.2288 24.8937C24.2149 24.8937 17.1144 13.1389 17.1144 0Z" fill="#FF7138"/>
<path d="M37.3405 24.8936C37.3405 31.4638 33.7915 37.3404 28.7829 37.3404C33.7915 37.3404 37.3405 43.2186 37.3405 49.7872C37.3405 43.2186 40.8895 37.3404 45.8981 37.3404C40.8895 37.3404 37.3405 31.4638 37.3405 24.8936Z" fill="#FF7138"/>
<path d="M41.2305 0C41.2305 6.56944 37.6815 12.4468 32.6729 12.4468C37.6807 12.4468 41.2305 18.3251 41.2305 24.8937C41.2305 18.3251 44.7795 12.4468 49.7881 12.4468C44.7795 12.4468 41.2305 6.56944 41.2305 0Z" fill="#FF7138"/>
</svg>
