<svg width="112" height="112" viewBox="0 0 112 112" fill="none" xmlns="http://www.w3.org/2000/svg">
<g id="Property 1=Default">
<g id="Group 3">
<circle id="Ellipse 1" cx="56" cy="56" r="56" fill="#FF7138"/>
</g>
<path id="Vector" d="M56.0779 69.6901C63.4708 69.6901 69.4638 63.6971 69.4638 56.3042V33.9943C69.4638 26.6014 63.4708 20.6084 56.0779 20.6084C48.685 20.6084 42.692 26.6014 42.692 33.9943V56.3042C42.692 63.6971 48.685 69.6901 56.0779 69.6901ZM78.3878 47.3802H76.1568C74.9242 47.3802 73.9258 48.3786 73.9258 49.6112V56.3042C73.9258 66.7341 64.9335 75.103 54.2945 74.0656C45.022 73.1607 38.23 64.8252 38.23 55.5094V49.6112C38.23 48.3786 37.2316 47.3802 35.999 47.3802H33.768C32.5354 47.3802 31.537 48.3786 31.537 49.6112V55.211C31.537 67.7101 40.4568 78.8525 52.7314 80.5453V85.307H44.923C43.6904 85.307 42.692 86.3054 42.692 87.538V89.769C42.692 91.0016 43.6904 92 44.923 92H67.2328C68.4655 92 69.4638 91.0016 69.4638 89.769V87.538C69.4638 86.3054 68.4655 85.307 67.2328 85.307H59.4244V80.5982C71.3755 78.9585 80.6188 68.7001 80.6188 56.3042V49.6112C80.6188 48.3786 79.6204 47.3802 78.3878 47.3802Z" fill="#414141"/>
</g>
</svg>
