<svg width="50" height="72" viewBox="0 0 50 72" fill="none" xmlns="http://www.w3.org/2000/svg">
<path d="M25.0779 49.6901C32.4708 49.6901 38.4638 43.6971 38.4638 36.3042V13.9943C38.4638 6.60139 32.4708 0.608398 25.0779 0.608398C17.685 0.608398 11.692 6.60139 11.692 13.9943V36.3042C11.692 43.6971 17.685 49.6901 25.0779 49.6901ZM47.3878 27.3802H45.1568C43.9242 27.3802 42.9258 28.3786 42.9258 29.6112V36.3042C42.9258 46.7341 33.9335 55.103 23.2945 54.0656C14.022 53.1607 7.23001 44.8252 7.23001 35.5094V29.6112C7.23001 28.3786 6.23164 27.3802 4.99902 27.3802H2.76804C1.53542 27.3802 0.537048 28.3786 0.537048 29.6112V35.211C0.537048 47.7101 9.45681 58.8525 21.7314 60.5453V65.307H13.923C12.6904 65.307 11.692 66.3054 11.692 67.538V69.769C11.692 71.0016 12.6904 72 13.923 72H36.2328C37.4655 72 38.4638 71.0016 38.4638 69.769V67.538C38.4638 66.3054 37.4655 65.307 36.2328 65.307H28.4244V60.5982C40.3755 58.9585 49.6188 48.7001 49.6188 36.3042V29.6112C49.6188 28.3786 48.6204 27.3802 47.3878 27.3802Z" fill="#414141"/>
</svg>
