<svg width="37" height="54" viewBox="0 0 37 54" fill="none" xmlns="http://www.w3.org/2000/svg">
<path id="Vector" d="M18.0571 36.7728C23.4786 36.7728 27.8735 32.3779 27.8735 26.9564V10.5959C27.8735 5.17437 23.4786 0.77951 18.0571 0.77951C12.6356 0.77951 8.24077 5.17437 8.24077 10.5959V26.9564C8.24077 32.3779 12.6356 36.7728 18.0571 36.7728ZM34.4177 20.4122H32.7816C31.8777 20.4122 31.1456 21.1443 31.1456 22.0483V26.9564C31.1456 34.605 24.5512 40.7423 16.7493 39.9815C9.94943 39.3179 4.96866 33.2051 4.96866 26.3736V22.0483C4.96866 21.1443 4.23652 20.4122 3.3326 20.4122H1.69654C0.792621 20.4122 0.0604858 21.1443 0.0604858 22.0483V26.1548C0.0604858 35.3208 6.60165 43.4919 15.603 44.7332V48.2252H9.87683C8.97291 48.2252 8.24077 48.9573 8.24077 49.8612V51.4973C8.24077 52.4012 8.97291 53.1333 9.87683 53.1333H26.2374C27.1413 53.1333 27.8735 52.4012 27.8735 51.4973V49.8612C27.8735 48.9573 27.1413 48.2252 26.2374 48.2252H20.5112V44.7721C29.2754 43.5696 36.0537 36.0468 36.0537 26.9564V22.0483C36.0537 21.1443 35.3216 20.4122 34.4177 20.4122Z" fill="#FF7138"/>
</svg>
